<svg xmlns="http://www.w3.org/2000/svg" xmlns:xlink="http://www.w3.org/1999/xlink" width="103px" height="31px" viewBox="0 0 103 31"><title>F941FF15-8B8F-41B5-88A1-254EE018C0E0</title><g id="UI-KIT" stroke="none" stroke-width="1" fill="none" fill-rule="evenodd"><g id="Main-Navigation-Mobile" transform="translate(-109.000000, -11.000000)"><g id="MidCap_Logo_RGB_crop" transform="translate(109.000000, 11.000000)"><g id="midcap-logo" transform="translate(0.296117, -0.000000)"><g id="logo-mark"><polygon id="Fill-1" fill="#00AF74" points="15.0095534 0 10.8405291 4.16902427 6.67150485 0 4.1731699 2.49833495 10.8405291 9.16539806 17.5078883 2.49833495"></polygon><polygon id="Fill-2" fill="#00AF74" points="21.680999 15.0095238 17.5119748 10.8404995 21.680999 6.67147524 19.1826641 4.17314029 12.515601 10.8404995 19.1826641 17.5078587"></polygon><polygon id="Fill-3" fill="#00AF74" points="6.67147524 21.6809694 10.8404995 17.5119451 15.0095238 21.6809694 17.5078587 19.1826345 10.8404995 12.5155714 4.17314029 19.1826345"></polygon><polygon id="Fill-4" fill="#21409A" points="0 6.67141602 4.16902427 10.8407364 0 15.0094646 2.49833495 17.5077995 9.16539806 10.8407364 2.49833495 4.17308107"></polygon></g><path d="M41.1441743,18.7892437 L37.5958102,18.7892437 L37.5958102,9.76272427 L33.5816549,16.3498359 L33.1824898,16.3498359 L29.1680383,9.76272427 L29.1680383,18.7892437 L25.6196743,18.7892437 L25.6196743,2.96862718 L29.1680383,2.96862718 L33.3820723,10.1621854 L37.5958102,2.96862718 L41.1441743,2.96862718 L41.1441743,18.7892437 Z M43.1406214,18.7893029 L46.4671942,18.7893029 L46.4671942,7.70033204 L43.1406214,7.70033204 L43.1406214,18.7893029 Z M42.8081714,4.72844757 C42.8081714,3.6417 43.7175451,2.73262233 44.8039966,2.73262233 C45.8907442,2.73262233 46.800118,3.6417 46.800118,4.72844757 C46.800118,5.81519515 45.8907442,6.72456893 44.8039966,6.72456893 C43.7175451,6.72456893 42.8081714,5.81519515 42.8081714,4.72844757 M59.7297786,3.26486214 L59.7297786,18.7893621 L56.4032058,18.7893621 L56.4032058,17.7467359 C55.6712058,18.5894835 54.5847544,19.0996922 53.0985456,19.0996922 C50.1933466,19.0996922 47.7983563,16.5492408 47.7983563,13.2445806 C47.7983563,9.9402165 50.1933466,7.38976505 53.0985456,7.38976505 C54.5847544,7.38976505 55.6712058,7.89997379 56.4032058,8.74272136 L56.4032058,3.26486214 L59.7297786,3.26486214 Z M56.4032058,13.2445806 C56.4032058,11.5815903 55.2942495,10.5389641 53.7639194,10.5389641 C52.2338854,10.5389641 51.1249291,11.5815903 51.1249291,13.2445806 C51.1249291,14.9081631 52.2338854,15.9504932 53.7639194,15.9504932 C55.2942495,15.9504932 56.4032058,14.9081631 56.4032058,13.2445806 L56.4032058,13.2445806 Z M61.0607927,11.0269937 C61.0607927,6.45850825 64.4539917,2.95426553 69.1335209,2.95426553 C71.949885,2.95426553 74.4340063,4.35163932 75.7869626,6.5473432 L72.7263024,8.32108107 C72.0387199,7.12358592 70.7079723,6.41409078 69.1335209,6.41409078 C66.3834869,6.41409078 64.6091568,8.25475097 64.6091568,11.0269937 C64.6091568,13.7992364 66.3834869,15.6398966 69.1335209,15.6398966 C70.7079723,15.6398966 72.0609286,14.9304015 72.7263024,13.7329063 L75.7869626,15.5069403 C74.456215,17.7026442 71.9723898,19.0997218 69.1335209,19.0997218 C64.4539917,19.0997218 61.0607927,15.5957752 61.0607927,11.0269937 M88.2736034,7.70033204 L88.2736034,18.7893029 L84.9470306,18.7893029 L84.9470306,17.7469728 C84.2150306,18.5894243 83.128283,19.0999291 81.6423704,19.0999291 C78.7371714,19.0999291 76.341885,16.5491816 76.341885,13.2448175 C76.341885,9.94015728 78.7371714,7.39000194 81.6423704,7.39000194 C83.128283,7.39000194 84.2150306,7.89991456 84.9470306,8.74266214 L84.9470306,7.70033204 L88.2736034,7.70033204 Z M84.9470306,13.2448175 C84.9470306,11.5815311 83.8380743,10.539201 82.3077442,10.539201 C80.7774141,10.539201 79.6687539,11.5815311 79.6687539,13.2448175 C79.6687539,14.9081039 80.7774141,15.950434 82.3077442,15.950434 C83.8380743,15.950434 84.9470306,14.9081039 84.9470306,13.2448175 L84.9470306,13.2448175 Z M102.090548,13.2446694 C102.090548,16.5493296 99.6952612,19.0997811 96.7900621,19.0997811 C95.3041495,19.0997811 94.2174019,18.5895723 93.4856981,17.7468248 L93.4856981,23.224684 L90.1588291,23.224684 L90.1588291,7.70018398 L93.4856981,7.70018398 L93.4856981,8.74251408 C94.2174019,7.8997665 95.3041495,7.38985388 96.7900621,7.38985388 C99.6952612,7.38985388 102.090548,9.94030534 102.090548,13.2446694 M98.7639748,13.2446694 C98.7639748,11.581383 97.6550184,10.5390529 96.1246883,10.5390529 C94.5946544,10.5390529 93.4856981,11.581383 93.4856981,13.2446694 C93.4856981,14.9079558 94.5946544,15.950582 96.1246883,15.950582 C97.6550184,15.950582 98.7639748,14.9079558 98.7639748,13.2446694 M25.5813568,21.9557951 L25.5813568,30.2440961 L27.1229393,30.2440961 L27.1229393,26.6945476 L29.577449,26.6945476 L29.577449,25.2814796 L27.1229393,25.2814796 L27.1229393,23.5015233 L30.3263277,23.5015233 L30.3263277,21.9557951 L25.5813568,21.9557951 Z M31.4549461,22.5157218 C31.4549461,22.0093626 31.85115,21.6128626 32.4016306,21.6128626 C32.9411549,21.6128626 33.348315,22.0093626 33.348315,22.5157218 C33.348315,23.0220811 32.9411549,23.418285 32.4016306,23.418285 C31.85115,23.418285 31.4549461,23.0220811 31.4549461,22.5157218 L31.4549461,22.5157218 Z M31.6201791,30.2440665 L33.1614655,30.2440665 L33.1614655,24.1449549 L31.6201791,24.1449549 L31.6201791,30.2440665 Z M38.7485917,26.8753563 C38.7485917,25.8955068 38.2090675,25.3669388 37.394451,25.3669388 C36.5579218,25.3669388 36.0183976,25.8955068 36.0183976,26.8753563 L36.0183976,30.2439777 L34.4771112,30.2439777 L34.4771112,24.1451621 L36.0183976,24.1451621 L36.0183976,24.904701 C36.4146015,24.3870893 37.0752374,24.0569194 37.8566888,24.0569194 C39.2771597,24.0569194 40.2898782,24.9816913 40.2898782,26.6660019 L40.2898782,30.2439777 L38.7485917,30.2439777 L38.7485917,26.8753563 Z M44.1433311,24.0459631 C45.1231806,24.0459631 45.7947728,24.508201 46.1581078,25.0148563 L46.1581078,24.1451621 L47.7100544,24.1451621 L47.7100544,30.2439777 L46.1581078,30.2439777 L46.1581078,29.3523709 C45.7947728,29.8806427 45.1009718,30.3431767 44.1323748,30.3431767 C42.5910883,30.3431767 41.3580592,29.0772786 41.3580592,27.1726573 C41.3580592,25.2680359 42.5910883,24.0459631 44.1433311,24.0459631 M44.539535,25.4001039 C43.7139621,25.4001039 42.9322146,26.0166184 42.9322146,27.1726573 C42.9322146,28.3286961 43.7139621,28.9890359 44.539535,28.9890359 C45.3873165,28.9890359 46.1581078,28.3506087 46.1581078,27.1945699 C46.1581078,26.0385311 45.3873165,25.4001039 44.539535,25.4001039 M53.4901005,26.8753563 C53.4901005,25.8955068 52.9505762,25.3669388 52.1359597,25.3669388 C51.2994306,25.3669388 50.7599063,25.8955068 50.7599063,26.8753563 L50.7599063,30.2439777 L49.2186199,30.2439777 L49.2186199,24.1451621 L50.7599063,24.1451621 L50.7599063,24.904701 C51.1561102,24.3870893 51.8167461,24.0569194 52.5984937,24.0569194 C54.0186684,24.0569194 55.0313869,24.9816913 55.0313869,26.6660019 L55.0313869,30.2439777 L53.4901005,30.2439777 L53.4901005,26.8753563 Z M59.1159291,24.0459631 C60.6353029,24.0459631 61.6589777,24.838667 61.9894437,26.2037641 L60.3270456,26.2037641 C60.1508563,25.6864485 59.7434,25.3559825 59.1049728,25.3559825 C58.246235,25.3559825 57.6738417,26.0056621 57.6738417,27.1945699 C57.6738417,28.3834777 58.246235,29.022201 59.1049728,29.022201 C59.7434,29.022201 60.1399,28.7358563 60.3270456,28.1853757 L61.9894437,28.1853757 C61.6589777,29.4844388 60.6353029,30.3431767 59.1159291,30.3431767 C57.354332,30.3431767 56.0993903,29.1101476 56.0993903,27.1945699 C56.0993903,25.2789922 57.354332,24.0459631 59.1159291,24.0459631 M62.9583369,22.5157218 C62.9583369,22.0093626 63.3545408,21.6128626 63.9050214,21.6128626 C64.4445456,21.6128626 64.8517058,22.0093626 64.8517058,22.5157218 C64.8517058,23.0220811 64.4445456,23.418285 63.9050214,23.418285 C63.3545408,23.418285 62.9583369,23.0220811 62.9583369,22.5157218 L62.9583369,22.5157218 Z M63.1235699,30.2440665 L64.6648563,30.2440665 L64.6648563,24.1449549 L63.1235699,24.1449549 L63.1235699,30.2440665 Z M68.5729723,24.0459631 C69.5528218,24.0459631 70.2244141,24.508201 70.587749,25.0148563 L70.587749,24.1451621 L72.1399917,24.1451621 L72.1399917,30.2439777 L70.587749,30.2439777 L70.587749,29.3523709 C70.2244141,29.8806427 69.5309092,30.3431767 68.562016,30.3431767 C67.0207296,30.3431767 65.7877005,29.0772786 65.7877005,27.1726573 C65.7877005,25.2680359 67.0207296,24.0459631 68.5729723,24.0459631 M68.9694723,25.4001039 C68.1436034,25.4001039 67.3621519,26.0166184 67.3621519,27.1726573 C67.3621519,28.3286961 68.1436034,28.9890359 68.9694723,28.9890359 C69.8169578,28.9890359 70.587749,28.3506087 70.587749,27.1945699 C70.587749,26.0385311 69.8169578,25.4001039 68.9694723,25.4001039 M73.6483204,30.2439777 L75.1896068,30.2439777 L75.1896068,22.0972204 L73.6483204,22.0972204 L73.6483204,30.2439777 Z" id="word-mark" fill="#21409A"></path></g></g></g></g></svg>