<svg xmlns="http://www.w3.org/2000/svg" xmlns:xlink="http://www.w3.org/1999/xlink" width="316" height="48" xmlns:v="https://vecta.io/nano"><g fill-rule="evenodd"><path d="M24.072.169l-6.466 6.452L11.14.169 7.265 4.036l10.341 10.319L27.947 4.036zm10.348 23.23l-6.466-6.452 6.466-6.452-3.875-3.867-10.34 10.319 10.34 10.319zM11.14 33.725l6.466-6.452 6.466 6.452 3.874-3.867-10.34-10.319L7.265 29.858z" fill="#46d3a4"/><g fill="#fff"><path d="M.793 10.495l6.466 6.452-6.466 6.452 3.875 3.866 10.34-10.319L4.668 6.628zm170.216 36.484h.689V4.764h-.689zm12.759-17.722h1.119v-9.175h-1.119z"/><use xlink:href="#B"/><use xlink:href="#C"/><path d="M206.98 29.257h1.08v-9.92h-1.08zm3.292 0h1.08v-9.92h-1.08zm3.292 0h1.067v-6.711h-1.067v6.711zm-.192-8.816c0-.385.321-.706.707-.706s.707.321.707.706-.322.706-.707.706-.707-.32-.707-.706h0zm7.226 6.467v-.834h-.926c-1.35 0-2.34.334-2.34 1.322 0 .693.334 1.129 1.273 1.129 1.132 0 1.993-.577 1.993-1.617m-4.334.488c0-1.553 1.646-2.079 3.369-2.079h.964v-.488c0-1.065-.412-1.514-1.44-1.514-.926 0-1.44.385-1.543 1.206h-1.067c.141-1.527 1.363-2.091 2.662-2.091 1.286 0 2.456.526 2.456 2.399v4.427h-1.067v-.847c-.502.629-1.106.962-2.096.962-1.247 0-2.238-.603-2.238-1.976"/><use xlink:href="#B" x="36.572"/><path d="M230.95 25.972v-.103c0-2.053 1.466-3.439 3.266-3.439 1.402 0 2.714.642 2.919 2.348h-1.054c-.167-1.065-.939-1.463-1.865-1.463-1.222 0-2.16.975-2.16 2.554v.103c0 1.643.9 2.515 2.199 2.515.952 0 1.814-.552 1.929-1.643h.99c-.141 1.45-1.312 2.528-2.932 2.528-1.877 0-3.292-1.322-3.292-3.401m12.409-.718c-.103-1.385-.823-1.938-1.929-1.938-1.093 0-1.827.744-2.006 1.938h3.935zm-5.08.719v-.102c0-2.028 1.299-3.439 3.151-3.439 1.556 0 3.022.937 3.022 3.336v.346h-5.067c.051 1.527.784 2.374 2.16 2.374 1.041 0 1.646-.385 1.787-1.168h1.068c-.231 1.347-1.351 2.053-2.868 2.053-1.903 0-3.253-1.335-3.253-3.401h0zm10.494-3.427h1.157l1.569 5.402 1.633-5.402h.926l1.53 5.402 1.582-5.402h1.093l-2.096 6.711h-1.184l-1.401-5.03-1.569 5.03h-1.17zm10.956 6.712h1.067v-6.711h-1.067v6.711zm-.193-8.816c0-.385.321-.706.707-.706s.707.321.707.706-.321.706-.707.706-.707-.32-.707-.706h0zm3.678 7.135v-4.132h-.965v-.898h.965v-1.527h1.067v1.527h1.569v.898h-1.569v4.029c0 .654.296.975.836.975.334 0 .592-.051.823-.141v.898a2.55 2.55 0 0 1-.913.141c-1.222 0-1.813-.719-1.813-1.771m4.333-8.238h1.067v4.273c.309-.629 1.054-1.18 2.16-1.18 1.389 0 2.367.757 2.367 2.707v4.12h-1.068V25.06c0-1.181-.501-1.706-1.582-1.706-.99 0-1.877.629-1.877 1.835v4.068h-1.067v-9.92z"/><use xlink:href="#C" x="80.358"/><path d="M292.61 25.959v-.103c0-1.694-.939-2.541-2.07-2.541-1.247 0-2.199.821-2.199 2.541v.103c0 1.72.9 2.528 2.212 2.528 1.337 0 2.057-.898 2.057-2.528h0zm-5.298-3.413h1.067v1.129c.386-.655 1.299-1.245 2.276-1.245 1.762 0 3.061 1.283 3.061 3.374v.103c0 2.053-1.209 3.464-3.061 3.464-1.106 0-1.89-.552-2.276-1.219v3.439h-1.067v-9.046z"/><use xlink:href="#D"/><path d="M303.168 29.257h1.08v-9.92h-1.08zm3.292 0h1.08v-9.92h-1.08z"/><use xlink:href="#D" x="14.352"/><path d="M64.606 29.249h-5.503v-13.97l-6.226 10.195h-.619l-6.226-10.195v13.97h-5.503V4.763h5.503l6.536 11.134 6.535-11.134h5.503zm3.097 0h5.159V12.086h-5.159zm-.516-21.762c0-1.682 1.41-3.089 3.095-3.089s3.096 1.407 3.096 3.089-1.41 3.089-3.096 3.089-3.095-1.407-3.095-3.089m26.245-2.265v24.027h-5.159v-1.614c-1.135 1.304-2.82 2.094-5.125 2.094-4.506 0-8.22-3.947-8.22-9.062s3.715-9.062 8.22-9.062c2.305 0 3.99.79 5.125 2.094V5.222h5.159zm-5.159 15.446c0-2.574-1.72-4.188-4.093-4.188s-4.093 1.614-4.093 4.188 1.72 4.188 4.093 4.188 4.093-1.613 4.093-4.188h0zm7.223-3.433c0-7.071 5.263-12.494 12.521-12.494 4.368 0 8.221 2.163 10.319 5.561l-4.747 2.745c-1.066-1.853-3.13-2.951-5.572-2.951-4.265 0-7.017 2.849-7.017 7.139s2.752 7.139 7.017 7.139c2.442 0 4.54-1.098 5.572-2.951l4.747 2.746c-2.064 3.398-5.916 5.561-10.319 5.561-7.258 0-12.521-5.423-12.521-12.494m42.207-5.149V29.25h-5.159v-1.613c-1.135 1.304-2.821 2.094-5.125 2.094-4.506 0-8.221-3.948-8.221-9.062s3.715-9.062 8.221-9.062c2.305 0 3.99.789 5.125 2.094v-1.613h5.159zm-5.159 8.581c0-2.574-1.72-4.188-4.093-4.188s-4.093 1.613-4.093 4.188 1.719 4.188 4.093 4.188 4.093-1.613 4.093-4.188h0zm26.588 0c0 5.115-3.715 9.062-8.221 9.062-2.305 0-3.99-.79-5.125-2.094v8.478h-5.16V12.086h5.16V13.7c1.135-1.304 2.82-2.094 5.125-2.094 4.506 0 8.221 3.947 8.221 9.062m-5.159 0c0-2.574-1.72-4.188-4.093-4.188s-4.093 1.613-4.093 4.188 1.72 4.188 4.093 4.188 4.093-1.614 4.093-4.188M40.469 34.15v12.828h2.391v-5.494h3.807v-2.187H42.86v-2.755h4.968V34.15z"/><use xlink:href="#E"/><path d="M60.891 41.764c0-1.517-.837-2.335-2.1-2.335-1.297 0-2.134.818-2.134 2.335v5.214h-2.39v-9.439h2.39v1.176c.614-.801 1.639-1.312 2.851-1.312 2.203 0 3.774 1.431 3.774 4.038v5.538h-2.39v-5.214zm8.367-4.379c1.52 0 2.561.715 3.125 1.5v-1.346h2.407v9.439h-2.407v-1.38c-.564.818-1.64 1.533-3.142 1.533-2.39 0-4.303-1.959-4.303-4.907s1.912-4.839 4.32-4.839m.614 2.096c-1.28 0-2.493.954-2.493 2.743s1.212 2.811 2.493 2.811c1.315 0 2.51-.988 2.51-2.777s-1.195-2.777-2.51-2.777m13.883 2.283c0-1.517-.837-2.335-2.1-2.335-1.297 0-2.134.818-2.134 2.335v5.214h-2.39v-9.439h2.39v1.176c.614-.801 1.639-1.312 2.852-1.312 2.203 0 3.773 1.431 3.773 4.038v5.538h-2.39v-5.214zm8.725-4.379c2.356 0 3.944 1.227 4.457 3.34h-2.578c-.273-.801-.905-1.312-1.895-1.312-1.332 0-2.22 1.006-2.22 2.846s.888 2.829 2.22 2.829c.99 0 1.605-.443 1.895-1.295h2.578c-.513 2.011-2.1 3.34-4.457 3.34-2.732 0-4.679-1.908-4.679-4.873s1.946-4.873 4.679-4.873"/><use xlink:href="#E" x="48.86"/><path d="M107.148 37.385c1.52 0 2.561.715 3.125 1.5v-1.346h2.407v9.439h-2.407v-1.38c-.564.818-1.639 1.533-3.142 1.533-2.39 0-4.303-1.959-4.303-4.907s1.912-4.839 4.32-4.839m.615 2.096c-1.281 0-2.493.954-2.493 2.743s1.212 2.811 2.493 2.811c1.314 0 2.51-.988 2.51-2.777s-1.195-2.777-2.51-2.777m7.256 7.497h2.39V34.369h-2.39z"/></g></g><defs ><path id="B" d="M187.189 22.545h1.067v1.065c.309-.629 1.054-1.18 2.16-1.18 1.389 0 2.367.757 2.367 2.707v4.12h-1.068V25.06c0-1.181-.501-1.706-1.582-1.706-.99 0-1.877.629-1.877 1.835v4.068h-1.067v-6.711z"/><path id="C" d="M199.92 25.728h3.189l-1.594-4.722-1.595 4.722zm.913-5.646h1.466l3.112 9.175h-1.106l-.9-2.643h-3.794l-.887 2.643h-1.054l3.163-9.175z"/><path id="D" d="M300.377 25.959v-.089c0-1.553-.862-2.554-2.199-2.554-1.351 0-2.199 1.001-2.199 2.541v.103c0 1.527.836 2.528 2.199 2.528 1.35 0 2.199-1.014 2.199-2.528m-5.504 0v-.103c0-2.015 1.401-3.426 3.305-3.426s3.305 1.399 3.305 3.413v.103c0 2.027-1.402 3.426-3.318 3.426s-3.292-1.45-3.292-3.413"/><path id="E" d="M49.579 35.017c0-.784.614-1.397 1.468-1.397.837 0 1.468.614 1.468 1.397s-.631 1.397-1.468 1.397c-.854 0-1.468-.613-1.468-1.397h0zm.256 11.961h2.39v-9.44h-2.39v9.44z"/></defs></svg>