<svg xmlns="http://www.w3.org/2000/svg" xmlns:xlink="http://www.w3.org/1999/xlink" width="316px" height="48px" viewBox="0 0 316 48"><title>78FC7973-DF54-4239-89A6-460A476FEE15</title><g id="HOME" stroke="none" stroke-width="1" fill="none" fill-rule="evenodd"><g id="1.0-Home-v05" transform="translate(-993.000000, -4999.000000)"><g id="MID002-footer-9" transform="translate(0.000000, 4657.000000)"><g id="MidCap_Logo_Tag_KO_RGB_crop" transform="translate(993.572589, 342.000000)"><g id="midcap-logo-KO-w-tag" transform="translate(0.220271, 0.168631)"><polygon id="Fill-1" fill="#46D3A4" points="23.2792829 0 16.8132619 6.45244919 10.347241 0 6.47240477 3.86670316 16.8132619 14.1853972 27.1541191 3.86670316"></polygon><polygon id="Fill-2" fill="#46D3A4" points="33.6265239 23.2304211 27.1605029 16.777972 33.6265239 10.3255228 29.7516877 6.4588196 19.4112898 16.777972 29.7516877 27.0971243"></polygon><polygon id="Fill-3" fill="#46D3A4" points="10.347241 33.5558981 16.8132619 27.1034489 23.2792829 33.5558981 27.1536598 29.6891949 16.8132619 19.3705009 6.47240477 29.6891949"></polygon><polygon id="Fill-4" fill="#FFFFFF" points="0 10.3255228 6.46602096 16.777972 0 23.2304211 3.8748362 27.096666 14.2152341 16.777972 3.8748362 6.4588196"></polygon><polygon id="Fill-5" fill="#FFFFFF" points="170.215671 46.8096109 170.904572 46.8096109 170.904572 4.59531341 170.215671 4.59531341"></polygon><polygon id="Fill-6" fill="#FFFFFF" points="182.975029 29.0879471 184.093803 29.0879471 184.093803 19.9127192 182.975029 19.9127192"></polygon><g id="Group-45" transform="translate(39.675852, 4.229313)" fill="#FFFFFF"><path d="M146.71966,18.1474732 L147.786997,18.1474732 L147.786997,19.2121113 C148.095624,18.5833195 148.841474,18.0319809 149.947389,18.0319809 C151.336672,18.0319809 152.313992,18.7886393 152.313992,20.7391772 L152.313992,24.8588637 L151.246196,24.8588637 L151.246196,20.6621823 C151.246196,19.4815935 150.745136,18.9559199 149.66448,18.9559199 C148.67476,18.9559199 147.786997,19.5847117 147.786997,20.7909655 L147.786997,24.8588637 L146.71966,24.8588637 L146.71966,18.1474732 Z" id="Fill-7"></path><path d="M159.450864,21.3296091 L162.639556,21.3296091 L161.04544,16.6072541 L159.450864,21.3296091 Z M160.363428,15.6837733 L161.829868,15.6837733 L164.941861,24.8585429 L163.835946,24.8585429 L162.935783,22.2155089 L159.142237,22.2155089 L158.254933,24.8585429 L157.200456,24.8585429 L160.363428,15.6837733 Z" id="Fill-9"></path><polygon id="Fill-11" points="166.510534 24.8586345 167.59073 24.8586345 167.59073 14.9391225 166.510534 14.9391225"></polygon><polygon id="Fill-13" points="169.80256 24.8586345 170.882756 24.8586345 170.882756 14.9391225 169.80256 14.9391225"></polygon><path d="M173.094587,24.8586345 L174.161923,24.8586345 L174.161923,18.1472441 L173.094587,18.1472441 L173.094587,24.8586345 Z M172.902154,16.0427163 C172.902154,15.6577417 173.223181,15.3369295 173.609425,15.3369295 C173.99475,15.3369295 174.316696,15.6577417 174.316696,16.0427163 C174.316696,16.4281492 173.99475,16.7485031 173.609425,16.7485031 C173.223181,16.7485031 172.902154,16.4281492 172.902154,16.0427163 L172.902154,16.0427163 Z" id="Fill-14"></path><path d="M180.128675,22.5102895 L180.128675,21.6761779 L179.202793,21.6761779 C177.852547,21.6761779 176.862368,22.0098225 176.862368,22.997924 C176.862368,23.6908783 177.196714,24.1271828 178.135456,24.1271828 C179.26709,24.1271828 180.128675,23.5497209 180.128675,22.5102895 M175.795031,22.997924 C175.795031,21.4451931 177.441044,20.9190612 179.164214,20.9190612 L180.128675,20.9190612 L180.128675,20.4314267 C180.128675,19.3663303 179.717172,18.9171933 178.688414,18.9171933 C177.762531,18.9171933 177.248152,19.3021679 177.145276,20.123447 L176.07794,20.123447 C176.219394,18.5963811 177.441044,18.03221 178.739851,18.03221 C180.025799,18.03221 181.196012,18.5578837 181.196012,20.4314267 L181.196012,24.8586345 L180.128675,24.8586345 L180.128675,24.0116904 C179.627155,24.6404823 179.02276,24.9741269 178.03258,24.9741269 C176.785211,24.9741269 175.795031,24.371 175.795031,22.997924" id="Fill-15"></path><path d="M183.291969,18.1474732 L184.359305,18.1474732 L184.359305,19.2121113 C184.667933,18.5833195 185.413783,18.0319809 186.519698,18.0319809 C187.908981,18.0319809 188.886301,18.7886393 188.886301,20.7391772 L188.886301,24.8588637 L187.818505,24.8588637 L187.818505,20.6621823 C187.818505,19.4815935 187.317445,18.9559199 186.236789,18.9559199 C185.247069,18.9559199 184.359305,19.5847117 184.359305,20.7909655 L184.359305,24.8588637 L183.291969,24.8588637 L183.291969,18.1474732 Z" id="Fill-16"></path><path d="M190.480555,21.573518 L190.480555,21.4708581 C190.480555,19.4176603 191.946535,18.0317517 193.746862,18.0317517 C195.148545,18.0317517 196.460671,18.673376 196.665963,20.3800967 L195.611486,20.3800967 C195.444772,19.3150004 194.672744,18.9171933 193.746862,18.9171933 C192.525212,18.9171933 191.58647,19.8924623 191.58647,21.4708581 L191.58647,21.573518 C191.58647,23.2160763 192.486633,24.0886853 193.78544,24.0886853 C194.737501,24.0886853 195.599086,23.5368884 195.714362,22.4461271 L196.704542,22.4461271 C196.563088,23.896198 195.392875,24.9741269 193.772581,24.9741269 C191.895097,24.9741269 190.480555,23.6523808 190.480555,21.573518" id="Fill-17"></path><path d="M202.89018,20.8547612 C202.786845,19.469311 202.067174,18.9170558 200.961259,18.9170558 C199.868203,18.9170558 199.134753,19.66134 198.95518,20.8547612 L202.89018,20.8547612 Z M197.810227,21.5733805 L197.810227,21.4711789 C197.810227,19.4431877 199.109494,18.0320725 200.961259,18.0320725 C202.517255,18.0320725 203.983236,18.968844 203.983236,21.3680607 L203.983236,21.7145378 L198.916602,21.7145378 C198.96804,23.2416037 199.70103,24.0890061 201.076994,24.0890061 C202.118152,24.0890061 202.723007,23.7040316 202.864002,22.9212499 L203.931798,22.9212499 C203.700327,24.2682027 202.581093,24.9739894 201.063675,24.9739894 C199.160932,24.9739894 197.810227,23.6394108 197.810227,21.5733805 L197.810227,21.5733805 Z" id="Fill-18"></path><polygon id="Fill-19" points="208.303607 18.1474732 209.46096 18.1474732 211.029816 23.5494918 212.66297 18.1474732 213.588852 18.1474732 215.11913 23.5494918 216.700846 18.1474732 217.793902 18.1474732 215.697807 24.8588637 214.514275 24.8588637 213.113052 19.828529 211.544195 24.8588637 210.373983 24.8588637"></polygon><path d="M219.259652,24.8586345 L220.326989,24.8586345 L220.326989,18.1472441 L219.259652,18.1472441 L219.259652,24.8586345 Z M219.06676,16.0427163 C219.06676,15.6577417 219.388247,15.3369295 219.774032,15.3369295 C220.159816,15.3369295 220.481303,15.6577417 220.481303,16.0427163 C220.481303,16.4281492 220.159816,16.7485031 219.774032,16.7485031 C219.388247,16.7485031 219.06676,16.4281492 219.06676,16.0427163 L219.06676,16.0427163 Z" id="Fill-20"></path><path d="M222.744525,23.1775788 L222.744525,19.0455181 L221.779605,19.0455181 L221.779605,18.1472441 L222.744525,18.1472441 L222.744525,16.6201782 L223.811402,16.6201782 L223.811402,18.1472441 L225.380259,18.1472441 L225.380259,19.0455181 L223.811402,19.0455181 L223.811402,23.0749189 C223.811402,23.7293757 224.10763,24.0501879 224.647728,24.0501879 C224.981615,24.0501879 225.239264,23.9988579 225.470734,23.9090305 L225.470734,24.8073046 C225.252123,24.8842995 224.994474,24.9484619 224.557252,24.9484619 C223.335602,24.9484619 222.744525,24.2298427 222.744525,23.1775788" id="Fill-21"></path><path d="M227.077526,14.9393516 L228.144863,14.9393516 L228.144863,19.2121113 C228.45349,18.5833195 229.19934,18.0319809 230.305255,18.0319809 C231.694538,18.0319809 232.671858,18.7886393 232.671858,20.7391772 L232.671858,24.8588637 L231.604062,24.8588637 L231.604062,20.6621823 C231.604062,19.4815935 231.103002,18.9559199 230.022346,18.9559199 C229.032626,18.9559199 228.144863,19.5847117 228.144863,20.7909655 L228.144863,24.8588637 L227.077526,24.8588637 L227.077526,14.9393516 Z" id="Fill-22"></path><path d="M239.80873,21.3296091 L242.997422,21.3296091 L241.403306,16.6072541 L239.80873,21.3296091 Z M240.721294,15.6837733 L242.187734,15.6837733 L245.299727,24.8585429 L244.193812,24.8585429 L243.293649,22.2155089 L239.500103,22.2155089 L238.612799,24.8585429 L237.558322,24.8585429 L240.721294,15.6837733 Z" id="Fill-23"></path><path d="M252.141153,21.560548 L252.141153,21.4578881 C252.141153,19.7639999 251.202411,18.9170558 250.070777,18.9170558 C248.823408,18.9170558 247.871807,19.7383349 247.871807,21.4578881 L247.871807,21.560548 C247.871807,23.2801012 248.77197,24.0890061 250.084096,24.0890061 C251.421482,24.0890061 252.141153,23.1907321 252.141153,21.560548 L252.141153,21.560548 Z M246.843048,18.1475649 L247.910385,18.1475649 L247.910385,19.2768237 C248.296169,18.6219086 249.209192,18.0320725 250.186513,18.0320725 C251.948261,18.0320725 253.247068,19.3153212 253.247068,21.4065582 L253.247068,21.5096764 C253.247068,23.5624159 252.038277,24.9739894 250.186513,24.9739894 C249.080598,24.9739894 248.296169,24.4221925 247.910385,23.7549032 L247.910385,27.1940096 L246.843048,27.1940096 L246.843048,18.1475649 Z" id="Fill-24"></path><path d="M259.90837,21.560548 L259.90837,21.4711789 C259.90837,19.9179897 259.046785,18.9170558 257.709399,18.9170558 C256.358695,18.9170558 255.510428,19.9179897 255.510428,21.4578881 L255.510428,21.560548 C255.510428,23.0876139 256.346294,24.0890061 257.709399,24.0890061 C259.059185,24.0890061 259.90837,23.0752397 259.90837,21.560548 M254.404513,21.560548 L254.404513,21.4578881 C254.404513,19.4431877 255.805737,18.0320725 257.709399,18.0320725 C259.612142,18.0320725 261.014285,19.4308136 261.014285,21.4450556 L261.014285,21.5481738 C261.014285,23.5752484 259.612142,24.9739894 257.696539,24.9739894 C255.780477,24.9739894 254.404513,23.5239184 254.404513,21.560548" id="Fill-25"></path><polygon id="Fill-26" points="262.698968 24.8586345 263.779164 24.8586345 263.779164 14.9391225 262.698968 14.9391225"></polygon><polygon id="Fill-27" points="265.990994 24.8586345 267.071191 24.8586345 267.071191 14.9391225 265.990994 14.9391225"></polygon><path d="M274.259547,21.560548 L274.259547,21.4711789 C274.259547,19.9179897 273.397962,18.9170558 272.060576,18.9170558 C270.709872,18.9170558 269.861605,19.9179897 269.861605,21.4578881 L269.861605,21.560548 C269.861605,23.0876139 270.697471,24.0890061 272.060576,24.0890061 C273.410362,24.0890061 274.259547,23.0752397 274.259547,21.560548 M268.75569,21.560548 L268.75569,21.4578881 C268.75569,19.4431877 270.156914,18.0320725 272.060576,18.0320725 C273.96332,18.0320725 275.365462,19.4308136 275.365462,21.4450556 L275.365462,21.5481738 C275.365462,23.5752484 273.96332,24.9739894 272.047717,24.9739894 C270.131654,24.9739894 268.75569,23.5239184 268.75569,21.560548" id="Fill-28"></path><polygon id="Fill-29" points="24.1374234 24.8510267 18.6340262 24.8510267 18.6340262 10.8805736 12.4082019 21.0755258 11.7891099 21.0755258 5.56282636 10.8805736 5.56282636 24.8510267 0.0594291578 24.8510267 0.0594291578 0.365267562 5.56282636 0.365267562 12.0986559 11.4988245 18.6340262 0.365267562 24.1374234 0.365267562"></polygon><polygon id="Fill-30" points="27.2341234 24.8508434 32.3935296 24.8508434 32.3935296 7.6883093 27.2341234 7.6883093"></polygon><path d="M26.7182287,3.08896282 C26.7182287,1.40699048 28.1286379,0 29.8136887,0 C31.4991988,0 32.909608,1.40699048 32.909608,3.08896282 C32.909608,4.77093516 31.4991988,6.17838394 29.8136887,6.17838394 C28.1286379,6.17838394 26.7182287,4.77093516 26.7182287,3.08896282" id="Fill-31"></path><path d="M52.9630909,0.823753972 L52.9630909,24.85121 L47.8036847,24.85121 L47.8036847,23.2375248 C46.6683766,24.5418554 44.9833257,25.3315117 42.6782643,25.3315117 C38.1723952,25.3315117 34.4578432,21.3841471 34.4578432,16.2694847 C34.4578432,11.1552805 38.1723952,7.207916 42.6782643,7.207916 C44.9833257,7.207916 46.6683766,7.99757222 47.8036847,9.30190281 L47.8036847,0.823753972 L52.9630909,0.823753972 Z M47.8036847,16.2694847 C47.8036847,13.6956545 46.0837296,12.0819694 43.7102374,12.0819694 C41.3372045,12.0819694 39.6172494,13.6956545 39.6172494,16.2694847 C39.6172494,18.8442314 41.3372045,20.4574583 43.7102374,20.4574583 C46.0837296,20.4574583 47.8036847,18.8442314 47.8036847,16.2694847 L47.8036847,16.2694847 Z" id="Fill-32"></path><path d="M55.0274504,12.8372987 C55.0274504,5.76659862 60.2901917,0.343039862 67.5479891,0.343039862 C71.9160781,0.343039862 75.7688695,2.50577214 77.8672607,5.90408954 L73.1202763,8.64932505 C72.0538582,6.79594735 69.989912,5.69785315 67.5479891,5.69785315 C63.2827758,5.69785315 60.5308476,8.54666515 60.5308476,12.8372987 C60.5308476,17.1279322 63.2827758,19.9767442 67.5479891,19.9767442 C69.989912,19.9767442 72.0883032,18.87865 73.1202763,17.0252723 L77.8672607,19.7709661 C75.8033145,23.1692835 71.9509824,25.3315575 67.5479891,25.3315575 C60.2901917,25.3315575 55.0274504,19.908457 55.0274504,12.8372987" id="Fill-33"></path><path d="M97.2336341,7.68858428 L97.2336341,24.8511184 L92.0742279,24.8511184 L92.0742279,23.2378915 C90.9389198,24.5417638 89.2534097,25.3318783 86.9488075,25.3318783 C82.4429384,25.3318783 78.7279271,21.3840555 78.7279271,16.2698513 C78.7279271,11.1551888 82.4429384,7.20828264 86.9488075,7.20828264 C89.2534097,7.20828264 90.9389198,7.99748056 92.0742279,9.30181115 L92.0742279,7.68858428 L97.2336341,7.68858428 Z M92.0742279,16.2698513 C92.0742279,13.6955629 90.3542728,12.082336 87.9807806,12.082336 C85.6072885,12.082336 83.8877926,13.6955629 83.8877926,16.2698513 C83.8877926,18.8441398 85.6072885,20.4573666 87.9807806,20.4573666 C90.3542728,20.4573666 92.0742279,18.8441398 92.0742279,16.2698513 L92.0742279,16.2698513 Z" id="Fill-34"></path><path d="M118.663265,16.2696222 C118.663265,21.3842846 114.948254,25.3316491 110.442384,25.3316491 C108.137782,25.3316491 106.452272,24.5419929 105.317423,23.2376623 L105.317423,31.7158112 L100.157558,31.7158112 L100.157558,7.68835513 L105.317423,7.68835513 L105.317423,9.301582 C106.452272,7.99725141 108.137782,7.20805349 110.442384,7.20805349 C114.948254,7.20805349 118.663265,11.155418 118.663265,16.2696222 M113.503859,16.2696222 C113.503859,13.6953337 111.783904,12.0821068 109.410411,12.0821068 C107.037378,12.0821068 105.317423,13.6953337 105.317423,16.2696222 C105.317423,18.8439106 107.037378,20.4575958 109.410411,20.4575958 C111.783904,20.4575958 113.503859,18.8439106 113.503859,16.2696222" id="Fill-35"></path><polygon id="Fill-36" points="0 29.7519366 0 42.5798401 2.39094432 42.5798401 2.39094432 37.0861609 6.197809 37.0861609 6.197809 34.8991386 2.39094432 34.8991386 2.39094432 32.1442787 7.3592954 32.1442787 7.3592954 29.7519366"></polygon><path d="M9.10974588,30.6185419 C9.10974588,29.8348436 9.7242452,29.2211758 10.5780227,29.2211758 C11.4148073,29.2211758 12.0462995,29.8348436 12.0462995,30.6185419 C12.0462995,31.4022402 11.4148073,32.0154497 10.5780227,32.0154497 C9.7242452,32.0154497 9.10974588,31.4022402 9.10974588,30.6185419 L9.10974588,30.6185419 Z M9.3660169,42.5797942 L11.756502,42.5797942 L11.756502,33.1401255 L9.3660169,33.1401255 L9.3660169,42.5797942 Z" id="Fill-37"></path><path d="M20.4219529,37.3660008 C20.4219529,35.8494759 19.5851683,35.0314049 18.3217246,35.0314049 C17.0242952,35.0314049 16.1875106,35.8494759 16.1875106,37.3660008 L16.1875106,42.5796567 L13.7970255,42.5796567 L13.7970255,33.1404463 L16.1875106,33.1404463 L16.1875106,34.3159937 C16.8020099,33.5148799 17.8266347,33.003872 19.0386405,33.003872 C21.2417446,33.003872 22.8124379,34.4351525 22.8124379,37.0419805 L22.8124379,42.5796567 L20.4219529,42.5796567 L20.4219529,37.3660008 Z" id="Fill-38"></path><path d="M28.789018,32.9869148 C30.3087327,32.9869148 31.3503504,33.7023259 31.9138711,34.4864825 L31.9138711,33.1404463 L34.3208897,33.1404463 L34.3208897,42.5796567 L31.9138711,42.5796567 L31.9138711,41.1997061 C31.3503504,42.0173189 30.2742877,42.7331883 28.7720251,42.7331883 C26.38154,42.7331883 24.469152,40.7739426 24.469152,37.8261371 C24.469152,34.8783316 26.38154,32.9869148 28.789018,32.9869148 M29.4035173,35.0827348 C28.1230807,35.0827348 26.9106157,36.0369218 26.9106157,37.8261371 C26.9106157,39.6153524 28.1230807,40.6373683 29.4035173,40.6373683 C30.7183989,40.6373683 31.9138711,39.6492668 31.9138711,37.8600515 C31.9138711,36.0708363 30.7183989,35.0827348 29.4035173,35.0827348" id="Fill-39"></path><path d="M43.2855532,37.3660008 C43.2855532,35.8494759 42.4487686,35.0314049 41.1853249,35.0314049 C39.8878954,35.0314049 39.0511108,35.8494759 39.0511108,37.3660008 L39.0511108,42.5796567 L36.6606258,42.5796567 L36.6606258,33.1404463 L39.0511108,33.1404463 L39.0511108,34.3159937 C39.6656102,33.5148799 40.690235,33.003872 41.9027,33.003872 C44.1053449,33.003872 45.6760382,34.4351525 45.6760382,37.0419805 L45.6760382,42.5796567 L43.2855532,42.5796567 L43.2855532,37.3660008 Z" id="Fill-40"></path><path d="M52.0110303,32.9869148 C54.3675296,32.9869148 55.9552158,34.2137922 56.4677578,36.3265694 L53.8894326,36.3265694 C53.6161687,35.5259139 52.9842172,35.0144477 51.9940374,35.0144477 C50.6621629,35.0144477 49.7743997,36.0199646 49.7743997,37.8600515 C49.7743997,39.7001384 50.6621629,40.6886982 51.9940374,40.6886982 C52.9842172,40.6886982 53.5991758,40.2455191 53.8894326,39.3935337 L56.4677578,39.3935337 C55.9552158,41.4041093 54.3675296,42.7331883 52.0110303,42.7331883 C49.2788505,42.7331883 47.3324767,40.8248142 47.3324767,37.8600515 C47.3324767,34.8952888 49.2788505,32.9869148 52.0110303,32.9869148" id="Fill-41"></path><path d="M57.9704797,30.6185419 C57.9704797,29.8348436 58.584979,29.2211758 59.4387565,29.2211758 C60.2755411,29.2211758 60.9070333,29.8348436 60.9070333,30.6185419 C60.9070333,31.4022402 60.2755411,32.0154497 59.4387565,32.0154497 C58.584979,32.0154497 57.9704797,31.4022402 57.9704797,30.6185419 L57.9704797,30.6185419 Z M58.2267507,42.5797942 L60.6172357,42.5797942 L60.6172357,33.1401255 L58.2267507,33.1401255 L58.2267507,42.5797942 Z" id="Fill-42"></path><path d="M66.6785965,32.9869148 C68.1983112,32.9869148 69.2399289,33.7023259 69.8034496,34.4864825 L69.8034496,33.1404463 L72.2109275,33.1404463 L72.2109275,42.5796567 L69.8034496,42.5796567 L69.8034496,41.1997061 C69.2399289,42.0173189 68.1643254,42.7331883 66.6616036,42.7331883 C64.2711186,42.7331883 62.3587305,40.7739426 62.3587305,37.8261371 C62.3587305,34.8783316 64.2711186,32.9869148 66.6785965,32.9869148 M67.2935551,35.0827348 C66.0126593,35.0827348 64.8006535,36.0369218 64.8006535,37.8261371 C64.8006535,39.6153524 66.0126593,40.6373683 67.2935551,40.6373683 C68.6079774,40.6373683 69.8034496,39.6492668 69.8034496,37.8600515 C69.8034496,36.0708363 68.6079774,35.0827348 67.2935551,35.0827348" id="Fill-43"></path><polygon id="Fill-44" points="74.5501125 42.5798401 76.9405975 42.5798401 76.9405975 29.9710055 74.5501125 29.9710055"></polygon></g></g></g></g></g></g></svg>